# xmcd
#
# Track frame offsets: 
#        150
#        17603
#        41560
#        55071
#        83241
#        96170
#        115970
#        131382
#        154542
#        179592
#        197314
#        214151
#        237476
#        256106
#        278393
#        303740
#        336430
#
# Disc length: 4769 seconds
#
# Revision: 0
# Processed by: cddbd v1.5.2PL0 Copyright (c) Steve Scherf et al.
# Submitted via: ExactAudioCopy v1.3
#
DISCID=e4129f11
DTITLE=Various Artist - Akella Presents - vol. 190 - Various Blues-Re
DTITLE=lax  CD2
DYEAR=2019
DGENRE=Blues
TTITLE0=In Layman Terms - Fever
TTITLE1=Earl Thomas - Ask Me the Time
TTITLE2=Kerry Kearney - Girl from the North Country
TTITLE3=Aron Burton - Rainy Night In Georgia
TTITLE4=The 44 Dealers - Little Dynamite
TTITLE5=The Ragtime Rumours - Ain't No Grave
TTITLE6=Catfish - When B.B. Sings the Blues
TTITLE7=Alvaro Assmar - Love in Vain
TTITLE8=Nick Harless - Just Another Broken Heart
TTITLE9=Billy Hector Band - Wild Heart
TTITLE10=Robert Nighthawk - I'm Blue
TTITLE11=Dave Kelly - Leaving
TTITLE12=George Benson - Walking To New Orleans
TTITLE13=Dawn Tyler Watson - Lost
TTITLE14=Marc Amacher - Grandma
TTITLE15=Muddy What - Haven't Seen You For A While
TTITLE16=Tamara and Lucky Peterson - Have You Ever
EXTD=
EXTT0=
EXTT1=
EXTT2=
EXTT3=
EXTT4=
EXTT5=
EXTT6=
EXTT7=
EXTT8=
EXTT9=
EXTT10=
EXTT11=
EXTT12=
EXTT13=
EXTT14=
EXTT15=
EXTT16=
PLAYORDER=
